<svg width="44" height="44" viewBox="0 0 44 44" fill="none" xmlns="http://www.w3.org/2000/svg">
<g clip-path="url(#clip0_1495_8420)">
<path d="M9.16654 13.1999C9.16654 12.1302 9.59148 11.1043 10.3479 10.3479C11.1043 9.59148 12.1302 9.16654 13.1999 9.16654H15.0332C16.0982 9.16593 17.1197 8.74414 17.8749 7.9932L19.1582 6.70987C19.533 6.33294 19.9787 6.03381 20.4695 5.8297C20.9603 5.62559 21.4866 5.52051 22.0182 5.52051C22.5498 5.52051 23.0761 5.62559 23.5669 5.8297C24.0577 6.03381 24.5034 6.33294 24.8782 6.70987L26.1615 7.9932C26.9169 8.74487 27.9399 9.16654 29.0032 9.16654H30.8365C31.9062 9.16654 32.9321 9.59148 33.6885 10.3479C34.4449 11.1043 34.8699 12.1302 34.8699 13.1999V15.0332C34.8699 16.0965 35.2915 17.1195 36.0432 17.8749L37.3265 19.1582C37.7035 19.533 38.0026 19.9787 38.2067 20.4695C38.4108 20.9603 38.5159 21.4866 38.5159 22.0182C38.5159 22.5498 38.4108 23.0761 38.2067 23.5669C38.0026 24.0577 37.7035 24.5034 37.3265 24.8782L36.0432 26.1615C35.2923 26.9167 34.8705 27.9382 34.8699 29.0032V30.8365C34.8699 31.9062 34.4449 32.9321 33.6885 33.6885C32.9321 34.4449 31.9062 34.8699 30.8365 34.8699H29.0032C27.9382 34.8705 26.9167 35.2923 26.1615 36.0432L24.8782 37.3265C24.5034 37.7035 24.0577 38.0026 23.5669 38.2067C23.0761 38.4108 22.5498 38.5159 22.0182 38.5159C21.4866 38.5159 20.9603 38.4108 20.4695 38.2067C19.9787 38.0026 19.533 37.7035 19.1582 37.3265L17.8749 36.0432C17.1197 35.2923 16.0982 34.8705 15.0332 34.8699H13.1999C12.1302 34.8699 11.1043 34.4449 10.3479 33.6885C9.59148 32.9321 9.16654 31.9062 9.16654 30.8365V29.0032C9.16593 27.9382 8.74414 26.9167 7.9932 26.1615L6.70987 24.8782C6.33294 24.5034 6.03381 24.0577 5.8297 23.5669C5.62559 23.0761 5.52051 22.5498 5.52051 22.0182C5.52051 21.4866 5.62559 20.9603 5.8297 20.4695C6.03381 19.9787 6.33294 19.533 6.70987 19.1582L7.9932 17.8749C8.74414 17.1197 9.16593 16.0982 9.16654 15.0332V13.1999Z" stroke="#352E3A" stroke-width="1.83333" stroke-linecap="round" stroke-linejoin="round"/>
<path d="M16.5 21.9997L20.1667 25.6663L27.5 18.333" stroke="#352E3A" stroke-width="1.83333" stroke-linecap="round" stroke-linejoin="round"/>
</g>
<defs>
<clipPath id="clip0_1495_8420">
<rect width="44" height="44" fill="white"/>
</clipPath>
</defs>
</svg>
