<svg width="44" height="44" viewBox="0 0 44 44" fill="none" xmlns="http://www.w3.org/2000/svg">
<g clip-path="url(#clip0_1495_8416)">
<path d="M36.5438 23.9081C36.1976 26.548 35.1393 29.0439 33.4824 31.128C31.8255 33.2122 29.6326 34.8061 27.1387 35.7386C24.6449 36.6712 21.9442 36.9073 19.3263 36.4216C16.7085 35.936 14.2722 34.7469 12.2788 32.9818C10.2854 31.2168 8.81006 28.9424 8.01101 26.4026C7.21197 23.8628 7.11937 21.1534 7.74313 18.565C8.3669 15.9766 9.6835 13.6068 11.5517 11.7097C13.42 9.8127 15.7694 8.46001 18.348 7.79674C25.4961 5.96341 32.8955 9.64291 35.6271 16.4996" stroke="#352E3A" stroke-width="1.83333" stroke-linecap="round" stroke-linejoin="round"/>
<path d="M36.6667 7.33301V16.4997H27.5" stroke="#352E3A" stroke-width="1.83333" stroke-linecap="round" stroke-linejoin="round"/>
</g>
<defs>
<clipPath id="clip0_1495_8416">
<rect width="44" height="44" fill="white"/>
</clipPath>
</defs>
</svg>
