<svg width="44" height="44" viewBox="0 0 44 44" fill="none" xmlns="http://www.w3.org/2000/svg">
<g clip-path="url(#clip0_1495_8404)">
<path d="M30.2503 18.333C35.82 18.333 40.3337 22.0272 40.3337 26.583C40.3337 29.1442 38.9073 31.4322 36.667 32.9447V36.6663L33.0663 34.5067C32.1435 34.7246 31.1985 34.8341 30.2503 34.833C24.6807 34.833 20.167 31.1388 20.167 26.583C20.167 22.0272 24.6807 18.333 30.2503 18.333Z" stroke="#352E3A" stroke-width="1.83333" stroke-linecap="round" stroke-linejoin="round"/>
<path d="M20.5282 28.7793C19.2632 29.1387 17.9065 29.333 16.5003 29.333C14.8712 29.3365 13.2529 29.0689 11.7117 28.541L7.33366 31.1663V26.0312C5.06583 24.0475 3.66699 21.3305 3.66699 18.333C3.66699 12.2573 9.41266 7.33301 16.5003 7.33301C23.434 7.33301 29.0825 12.0447 29.3337 17.9388V18.366" stroke="#352E3A" stroke-width="1.83333" stroke-linecap="round" stroke-linejoin="round"/>
<path d="M18.333 14.667H18.3513" stroke="#352E3A" stroke-width="1.83333" stroke-linecap="round" stroke-linejoin="round"/>
<path d="M12.833 14.667H12.8513" stroke="#352E3A" stroke-width="1.83333" stroke-linecap="round" stroke-linejoin="round"/>
<path d="M27.5 25.667H27.5183" stroke="#352E3A" stroke-width="1.83333" stroke-linecap="round" stroke-linejoin="round"/>
<path d="M33 25.667H33.0183" stroke="#352E3A" stroke-width="1.83333" stroke-linecap="round" stroke-linejoin="round"/>
</g>
<defs>
<clipPath id="clip0_1495_8404">
<rect width="44" height="44" fill="white"/>
</clipPath>
</defs>
</svg>
