<svg width="44" height="44" viewBox="0 0 44 44" fill="none" xmlns="http://www.w3.org/2000/svg">
<g clip-path="url(#clip0_1495_8385)">
<path d="M38.4997 25.6667L32.9997 20.1667H20.1663C19.6801 20.1667 19.2138 19.9735 18.87 19.6297C18.5262 19.2859 18.333 18.8196 18.333 18.3333V7.33333C18.333 6.8471 18.5262 6.38079 18.87 6.03697C19.2138 5.69315 19.6801 5.5 20.1663 5.5H36.6663C37.1526 5.5 37.6189 5.69315 37.9627 6.03697C38.3065 6.38079 38.4997 6.8471 38.4997 7.33333V25.6667Z" stroke="#352E3A" stroke-width="1.83333" stroke-linecap="round" stroke-linejoin="round"/>
<path d="M25.6667 27.4997V31.1663C25.6667 31.6526 25.4735 32.1189 25.1297 32.4627C24.7859 32.8065 24.3196 32.9997 23.8333 32.9997H11L5.5 38.4997V20.1663C5.5 19.6801 5.69315 19.2138 6.03697 18.87C6.38079 18.5262 6.8471 18.333 7.33333 18.333H11" stroke="#352E3A" stroke-width="1.83333" stroke-linecap="round" stroke-linejoin="round"/>
</g>
<defs>
<clipPath id="clip0_1495_8385">
<rect width="44" height="44" fill="white"/>
</clipPath>
</defs>
</svg>
