<svg width="44" height="44" viewBox="0 0 44 44" fill="none" xmlns="http://www.w3.org/2000/svg">
<g clip-path="url(#clip0_1495_8393)">
<path d="M18.333 9.16667C18.333 8.19421 18.7193 7.26158 19.407 6.57394C20.0946 5.88631 21.0272 5.5 21.9997 5.5C22.9721 5.5 23.9048 5.88631 24.5924 6.57394C25.28 7.26158 25.6663 8.19421 25.6663 9.16667C27.7718 10.1622 29.5666 11.7119 30.8584 13.6497C32.1503 15.5875 32.8905 17.8403 32.9997 20.1667V25.6667C33.1376 26.8065 33.5413 27.8979 34.1782 28.8532C34.815 29.8085 35.6673 30.6009 36.6663 31.1667H7.33301C8.33206 30.6009 9.18432 29.8085 9.82118 28.8532C10.458 27.8979 10.8617 26.8065 10.9997 25.6667V20.1667C11.1089 17.8403 11.8491 15.5875 13.1409 13.6497C14.4328 11.7119 16.2276 10.1622 18.333 9.16667Z" stroke="#352E3A" stroke-width="1.83333" stroke-linecap="round" stroke-linejoin="round"/>
<path d="M16.5 31.167V33.0003C16.5 34.459 17.0795 35.858 18.1109 36.8894C19.1424 37.9209 20.5413 38.5003 22 38.5003C23.4587 38.5003 24.8576 37.9209 25.8891 36.8894C26.9205 35.858 27.5 34.459 27.5 33.0003V31.167" stroke="#352E3A" stroke-width="1.83333" stroke-linecap="round" stroke-linejoin="round"/>
</g>
<defs>
<clipPath id="clip0_1495_8393">
<rect width="44" height="44" fill="white"/>
</clipPath>
</defs>
</svg>
