<svg width="44" height="45" viewBox="0 0 44 45" fill="none" xmlns="http://www.w3.org/2000/svg">
<g id="Frame">
<g id="Group">
<path id="Vector" d="M22 2.5C18.0444 2.5 14.1776 3.67298 10.8886 5.87061C7.59962 8.06823 5.03617 11.1918 3.52242 14.8463C2.00867 18.5009 1.6126 22.5222 2.3843 26.4018C3.15601 30.2814 5.06082 33.8451 7.85787 36.6421C10.6549 39.4392 14.2186 41.344 18.0982 42.1157C21.9778 42.8874 25.9992 42.4913 29.6537 40.9776C33.3082 39.4638 36.4318 36.9004 38.6294 33.6114C40.827 30.3224 42 26.4556 42 22.5C41.9929 17.1978 39.8835 12.1149 36.1343 8.36566C32.3851 4.61646 27.3022 2.50706 22 2.5ZM33.175 17.0083L20.675 29.5083C20.5215 29.664 20.3386 29.7877 20.1369 29.8721C19.9351 29.9565 19.7187 29.9999 19.5 29.9999C19.2813 29.9999 19.0649 29.9565 18.8632 29.8721C18.6614 29.7877 18.4785 29.664 18.325 29.5083L12.4917 23.675C12.18 23.3634 12.005 22.9407 12.005 22.5C12.005 22.0593 12.18 21.6366 12.4917 21.325C12.8033 21.0134 13.226 20.8383 13.6667 20.8383C14.1074 20.8383 14.53 21.0134 14.8417 21.325L19.5 25.975L30.825 14.6583C31.1366 14.3467 31.5593 14.1716 32 14.1716C32.4407 14.1716 32.8634 14.3467 33.175 14.6583C33.4866 14.97 33.6617 15.3926 33.6617 15.8333C33.6617 16.274 33.4866 16.6967 33.175 17.0083Z" fill="#07C980"/>
<path id="Vector_2" d="M33.1739 17.0086L20.6739 29.5086C20.5204 29.6643 20.3375 29.7879 20.1358 29.8723C19.9341 29.9567 19.7176 30.0002 19.4989 30.0002C19.2803 30.0002 19.0638 29.9567 18.8621 29.8723C18.6604 29.7879 18.4774 29.6643 18.3239 29.5086L12.4906 23.6752C12.179 23.3636 12.0039 22.941 12.0039 22.5002C12.0039 22.0595 12.179 21.6369 12.4906 21.3252C12.8022 21.0136 13.2249 20.8385 13.6656 20.8385C14.1063 20.8385 14.529 21.0136 14.8406 21.3252L19.4989 25.9752L30.8239 14.6586C31.1356 14.3469 31.5582 14.1719 31.9989 14.1719C32.4396 14.1719 32.8623 14.3469 33.1739 14.6586C33.4856 14.9702 33.6606 15.3929 33.6606 15.8336C33.6606 16.2743 33.4856 16.6969 33.1739 17.0086Z" fill="white"/>
</g>
</g>
</svg>
